<?xml version="1.0" encoding="utf-8"?>
<!-- Generator: Adobe Illustrator 19.0.0, SVG Export Plug-In . SVG Version: 6.00 Build 0)  -->
<svg version="1.1" id="Layer_1" xmlns="http://www.w3.org/2000/svg" xmlns:xlink="http://www.w3.org/1999/xlink" x="0px" y="0px"
	 viewBox="-217 29 80 80" style="enable-background:new -217 29 80 80;" xml:space="preserve">
<style type="text/css">
	.st0{fill:#FFFFFF;}
</style>
<g>
	<path class="st0" d="M-191.4,76.2c4.1,0,7.6-3.3,11.2-7.2c-3.6-3.9-7-7.2-11.2-7.2c-4,0-7.2,3.2-7.2,7.2S-195.4,76.2-191.4,76.2z"
		/>
	<path class="st0" d="M-162.6,76.2c4,0,7.2-3.2,7.2-7.2s-3.2-7.2-7.2-7.2c-4.1,0-7.6,3.3-11.2,7.2
		C-170.2,72.9-166.7,76.2-162.6,76.2z"/>
	<path class="st0" d="M-177,105.8c20.3,0,36.8-16.5,36.8-36.8s-16.5-36.8-36.8-36.8s-36.8,16.5-36.8,36.8S-197.3,105.8-177,105.8z
		 M-191.4,57c6,0,10.3,4,14.4,8.4c4.1-4.4,8.5-8.4,14.4-8.4c6.6,0,12,5.4,12,12s-5.4,12-12,12c-6,0-10.3-4-14.4-8.4
		c-4.1,4.4-8.5,8.4-14.4,8.4c-6.6,0-12-5.4-12-12C-203.4,62.4-198,57-191.4,57z"/>
</g>
</svg>
